<svg
      xmlns="http://www.w3.org/2000/svg"
      width="24"
      height="24"
      viewBox="-7 -3.1 28 25"
      style="background-color:#fffbff"
      fill="#333399">
    <path d="M5.6302,13.6562 L6.31553333,13.6562 C7.31486667,13.6562 8.75286667,13.6335333 8.75286667,12.2588667 C8.75286667,10.8628667 7.20286667,10.8861756 6.22753333,10.8861756 L5.6302,10.8861756 L5.6302,13.6562 Z M6.18286667,7.36153333 C7.07153333,7.36153333 8.06686667,7.27353333 8.06686667,6.11886667 C8.06686667,4.87886667 6.93686667,4.9682 6.0522,4.9682 L5.6302,4.9682 L5.6302,7.36153333 L6.18286667,7.36153333 Z M0.0002,0.932866667 L7.07153333,0.932866667 C10.3055333,0.932866667 13.6108667,1.70753333 13.6108667,5.5642 C13.6108667,7.02886667 12.8768667,8.54953333 11.4162,9.0142 C13.2315333,9.65753333 14.3848667,11.0402 14.3848667,13.0328667 C14.3848667,16.4715333 11.1928667,17.6455333 8.26686667,17.6455333 L0.0002,17.6455333 L0.0002,0.932866667 Z"></path>
</svg>
